<?xml version="1.0" encoding="UTF-8"?>
<svg id="Layer_1" data-name="Layer 1" xmlns="http://www.w3.org/2000/svg" viewBox="0 0 46 40.17">
  <defs>
    <style>
      .cls-1 {
        fill: #28aadc;
      }

      .cls-1, .cls-2 {
        stroke-width: 0px;
      }

      .cls-2 {
        fill: #64ebb6;
      }
    </style>
  </defs>
  <path class="cls-2" d="m41.4,22.1l-2.67,2.67-15.16,15.16s-.11.1-.25.15c-.09.04-.2.06-.32.06-.04,0-.07,0-.1,0-.07,0-.13-.03-.19-.05-.15-.06-.24-.14-.27-.16l-4.89-4.89v-2.67c0-.41.34-.75.75-.75h6.91c.93,0,1.68-.79,1.68-1.76v-5.18c0-.97-.75-1.76-1.68-1.76h-6.91c-.41,0-.75-.34-.75-.75v-7.3c0-.97-.75-1.76-1.68-1.76h-4.99c-.93,0-1.68.79-1.68,1.76v7.3c0,.42-.34.75-.75.75h-3.03l-.83-.83C.35,18.26-1.11,12.41.87,7.55,3.18,1.88,9,.4,9.39.31c5-1.17,10.35,1.01,13.61,5.44C26.26,1.32,31.6-.86,36.61.31c.25.06,6.19,1.5,8.52,7.23,1.99,4.9.5,10.75-3.73,14.56Z"/>
  <path class="cls-1" d="m38.66,24.78c-.29.34-.61.66-.95.96l-14.26,14.26s-.06.06-.13.09c-.08.04-.19.08-.32.08-.06,0-.12,0-.17-.02-.05-.01-.08-.03-.12-.05-.08-.04-.14-.09-.16-.1l-5-5-.07-.07v-2.55c0-.41.34-.75.75-.75h6.91c.93,0,1.68-.79,1.68-1.76v-5.18c0-.97-.75-1.76-1.68-1.76h-6.91c-.41,0-.75-.34-.75-.75v-7.3c0-.97-.75-1.76-1.68-1.76h-4.93c-.93,0-1.68.79-1.68,1.76v7.3c0,.42-.34.75-.75.75h-2.43c-1.57-2.75-1.87-6-.72-8.83,1.84-4.53,6.5-5.71,6.81-5.78,4-.93,8.27.8,10.88,4.35,2.61-3.55,6.88-5.28,10.88-4.35.2.05,4.95,1.2,6.81,5.78,1.43,3.52.61,7.66-2.03,10.68Z"/>
</svg>